<?xml version="1.0" standalone="no"?>
<!DOCTYPE svg PUBLIC "-//W3C//DTD SVG 1.1//EN" "http://www.w3.org/Graphics/SVG/1.1/DTD/svg11.dtd" >
<!--
2013-9-30: Created.
-->
<svg>
<metadata>
Created by iconfont
</metadata>
<defs>

<font id="zm" horiz-adv-x="1024" >
  <font-face
    font-family="zm"
    font-weight="500"
    font-stretch="normal"
    units-per-em="1024"
    ascent="896"
    descent="-128"
  />
    <missing-glyph />
    
    <glyph glyph-name="fenlei_" unicode="&#59006;" d="M398.4 446.4H83.2c-30.4 0-56 25.6-56 56V817.6c0 30.4 25.6 56 56 56h315.2c30.4 0 56-25.6 56-56v-315.2c0-30.4-25.6-56-56-56z m-307.2 64h299.2V809.6H91.2v-299.2zM955.2 446.4H640c-30.4 0-56 25.6-56 56V817.6C584 848 608 873.6 640 873.6h315.2c30.4 0 56-25.6 56-56v-315.2c0-30.4-25.6-56-56-56z m-307.2 64h299.2V809.6H648v-299.2zM398.4-110.4H83.2c-30.4 0-56 25.6-56 56V260.8c0 30.4 25.6 56 56 56h315.2c30.4 0 56-25.6 56-56v-315.2c0-30.4-25.6-56-56-56z m-307.2 64h299.2V252.8H91.2v-299.2zM955.2-110.4H640c-30.4 0-56 25.6-56 56V260.8c0 30.4 25.6 56 56 56h315.2c30.4 0 56-25.6 56-56v-315.2c0-30.4-25.6-56-56-56z m-307.2 64h299.2V252.8H648v-299.2z"  horiz-adv-x="1024" />

    
    <glyph glyph-name="yijianbaojia" unicode="&#58886;" d="M232.68276 151.689576c89.785078 26.266073 140.348254 115.578599 112.270727 199.653661-3.741045 10.474926-7.48209 20.989231-13.073967 29.770842C170.935829 610.499203 279.465511 797.905864 477.819651 896c0 0-572.65553-89.312525-464.086468-621.722288 1.850833-5.276842 7.48209-26.266073 11.223135-31.503536 35.559617-75.332831 123.493862-113.885284 207.726442-91.0846zM833.809611 243.404246c-67.338809 55.446224-168.347022 50.405658-226.825461-13.467761-7.088296-8.387817-14.176591-16.775633-19.492813-25.202829-120.501026-236.945972-336.694044-247.027104-519.217657-142.829158 0 0 357.958931-394.896827 765.535931-45.365092 3.544148 3.347251 19.492813 20.162263 23.036961 23.509514 47.845996 63.87342 38.985626 151.216974-23.036961 203.355326zM628.524693 820.155236c-5.552498 1.732694-29.731462 5.237463-35.32334 6.970158-85.492722 7.009537-163.582112-47.215925-180.318366-127.628701-18.587086-85.689619 42.76605-169.646543 133.890029-187.131006 11.104997-1.732694 22.288752-3.465389 33.433128-3.465389 291.801505 24.45462 414.507778-153.894775 412.696325-363.747705 1.811453 1.772074 185.870864 515.870406-364.377776 674.963264z"  horiz-adv-x="1024" />

    
    <glyph glyph-name="wordpress1" unicode="&#59711;" d="M520.533333 234.666667l-108.8-265.386667a430.08 430.08 0 0 1 204.373334 0.853333m263.253333 624.64c8.106667-38.4 6.4-84.906667-9.386667-136.106666C828.586667 325.546667 725.333333 85.333333 686.933333-5.546667c148.48 66.133333 251.733333 213.76 251.733334 385.28 0 78.506667-21.333333 152.32-59.306667 215.04M183.893333 527.36S162.986667 554.666667 141.226667 554.666667h-22.613334C97.28 506.453333 85.333333 442.88 85.333333 384c0-174.506667 106.666667-324.693333 261.12-388.693333M133.546667 591.36C204.8 724.053333 347.306667 810.666667 512 810.666667c106.666667 0 203.946667-45.226667 278.613333-109.226667-21.333333 4.266667-43.946667-0.426667-68.266666-14.08-55.04-31.573333-72.96-120.32-1.706667-165.12 44.8-27.733333 60.586667-97.28 58.88-139.946667-1.28-42.24-103.253333-237.653333-103.253333-237.653333L576 485.12s-2.56 23.893333-2.56 30.72c0 8.533333 2.56 19.2 8.106667 25.6 3.84 3.84 9.386667 13.226667 15.786666 13.226667h47.36v36.693333h-256V554.666667h8.106667c8.533333 0 16.64-12.373333 24.32-20.053334 9.386667-9.813333 21.333333-46.08 35.413333-83.626666l37.12-122.453334-80.213333-184.746666-87.893333 369.493333s2.56 25.6 8.106666 29.866667C337.066667 546.133333 341.333333 554.666667 348.586667 554.666667h2.133333v36.693333H133.546667z"  horiz-adv-x="1024" />

    
    <glyph glyph-name="zm" unicode="&#58885;" d="M97.987025 90.987952V725.649676c0 39.859129 32.504171 72.363299 72.363299 72.363299h634.661724l-165.60519-165.60519H310.331789c-25.623726 0-46.739574-21.115848-46.739574-46.739574v-329.075069l-165.60519-165.60519zM926.012975 677.012048v-634.661724c0-39.859129-32.741427-72.363299-72.363299-72.363299H218.987952l165.60519 165.60519h329.075069c25.623726 0 46.739574 21.115848 46.739574 46.739574V511.406858l165.60519 165.60519z"  horiz-adv-x="1024" />

    
    <glyph glyph-name="home" unicode="&#59064;" d="M96 416c-9.6 0-19.2 3.2-25.6 12.8-12.8 12.8-9.6 35.2 3.2 44.8l377.6 310.4c35.2 25.6 86.4 25.6 118.4 0l377.6-307.2c12.8-9.6 16-32 3.2-44.8s-32-16-44.8-3.2l-374.4 300.8c-9.6 6.4-28.8 6.4-38.4 0l-377.6-307.2c-6.4-6.4-12.8-6.4-19.2-6.4zM816-32h-208c-19.2 0-32 12.8-32 32v150.4c0 22.4-38.4 44.8-67.2 44.8s-64-19.2-64-44.8v-150.4c0-19.2-12.8-32-32-32h-201.6c-48 0-83.2 35.2-83.2 80v304c0 19.2 12.8 32 32 32s32-12.8 32-32v-304c0-9.6 6.4-16 19.2-16h172.8v118.4c0 64 67.2 108.8 128 108.8s131.2-44.8 131.2-108.8v-118.4h176c9.6 0 16 0 16 19.2v300.8c0 19.2 12.8 32 32 32s32-12.8 32-32v-304c-3.2-48-35.2-80-83.2-80z"  horiz-adv-x="1024" />

    
    <glyph glyph-name="socialwordpressoutline" unicode="&#59691;" d="M511.8 768C300.4 768 128 595.6 128 383.8 128 172.2 300.4 0 511.8 0c17 0 33.6 1 49.8 3.6 171.4 22 307.6 157.4 330.6 328.2 2.6 17 3.8 34.4 3.8 52C896 595.6 723.6 768 511.8 768zM166.8 383.8c0 50 10.8 97.6 30 140.4l164.6-451C246.2 129.2 166.8 247.4 166.8 383.8zM556.6 41.4c-14.6-1.8-29.6-2.8-44.8-2.8-33.8 0-66.4 5-97.2 14.2l37.6 110 0.2 0 65.4 191L624 63c0.8-1.6 1.8-3.2 2.6-4.6C604.2 50.4 580.8 44.8 556.6 41.4zM559.6 545.8c20.8 1 39.4 3.2 39.4 3.2 18.8 2 16.4 29.6-2.2 28.4 0 0-56-4.4-92-4.4-33.8 0-91 4.4-91 4.4-18.4 1.2-20.8-27.4-2-28.4 0 0 17.4-2.2 36.2-3.2l53.8-147.4-75.6-226.6-125.8 374c21 1 39.6 3.2 39.6 3.2 18.4 2 16.4 29.6-2.2 28.4 0 0-55.8-4.4-92-4.4-6.6 0-14.2 0.2-22.2 0.4 61.6 93.6 167.8 155.4 288.2 155.4 90 0 171.8-34.4 233.2-90.4-1.6 0-3 0.2-4.6 0.2-34 0-58-29.6-58-61.4 0-28.4 16.4-52.4 33.8-80.8 13.2-23 28.6-52.6 28.6-95.2 0-29.6-8.8-66.8-26.2-111.4l-34.6-115.2L559.6 545.8zM685.4 85.4l27.4 79.4 78 225.6c19.8 49.2 26.2 88.6 26.2 123.6 0 12.6-0.8 24.6-2.2 35.6 27-49.2 42.4-105.6 42.4-165.8 0-16-1-31.6-3-47C839.4 229.4 775.2 137.6 685.4 85.4z"  horiz-adv-x="1024" />

    
    <glyph glyph-name="shenfen" unicode="&#59213;" d="M209.513187 5.138922c-62.613136 0-113.529313 50.916177-113.529313 113.529313L95.983874 617.165127c0 62.613136 50.916177 113.529313 113.529313 113.529313L832.548295 730.69444c62.613136 0 113.529313-50.916177 113.529313-113.529313l0-498.496892c0-62.613136-50.916177-113.529313-113.529313-113.529313L209.513187 5.138922zM209.513187 669.801445c-28.898371 0-52.636318-23.565933-52.636318-52.636318l0-498.496892c0-28.898371 23.565933-52.636318 52.636318-52.636318L832.548295 66.031917c28.898371 0 52.636318 23.565933 52.636318 52.636318L885.184613 617.165127c0 28.898371-23.565933 52.636318-52.636318 52.636318L209.513187 669.801445zM791.092894 192.11826c-16.857383 0-30.446498 13.761129-30.446498 30.446498 0 51.948261-42.143457 94.091718-94.091718 94.091718s-94.091718-42.143457-94.091718-94.091718c0-16.857383-13.761129-30.446498-30.446498-30.446498-16.857383 0-30.446498 13.761129-30.446498 30.446498 0 53.15236 27.350244 102.176382 72.417941 130.55871-19.781623 20.985721-30.790526 48.507979-30.790526 77.234336 0 62.613136 50.916177 113.529313 113.529313 113.529313s113.529313-50.916177 113.529313-113.529313c0-28.726356-11.180917-56.0766-30.790526-77.234336 44.895683-28.382328 72.417941-77.234336 72.417941-130.55871C821.711406 205.879389 807.950277 192.11826 791.092894 192.11826zM666.554678 482.822107c-28.898371 0-52.636318-23.565933-52.636318-52.636318s23.565933-52.636318 52.636318-52.636318c29.070385 0 52.636318 23.565933 52.636318 52.636318S695.453049 482.822107 666.554678 482.822107zM434.507643 482.13405 248.216361 482.13405c-17.717453 0-31.994625 14.277171-31.994625 31.994625 0 17.717453 14.277171 31.994625 31.994625 31.994625l186.291282 0c17.717453 0 31.994625-14.277171 31.994625-31.994625C466.502268 496.411221 452.225097 482.13405 434.507643 482.13405zM434.507643 336.09407 248.216361 336.09407c-17.717453 0-31.994625 14.277171-31.994625 31.994625s14.277171 31.994625 31.994625 31.994625l186.291282 0c17.717453 0 31.994625-14.277171 31.994625-31.994625S452.225097 336.09407 434.507643 336.09407zM434.507643 191.602217 248.216361 191.602217c-17.717453 0-31.994625 14.277171-31.994625 31.994625s14.277171 31.994625 31.994625 31.994625l186.291282 0c17.717453 0 31.994625-14.277171 31.994625-31.994625S452.225097 191.602217 434.507643 191.602217z"  horiz-adv-x="1024" />

    
    <glyph glyph-name="bangzhuzhongxin" unicode="&#59279;" d="M891.033093 797.607929 649.86931 797.607929c-56.248614 0-106.30472-27.178229-137.783303-68.977658-31.478582 41.799429-81.534688 68.977658-137.783303 68.977658L132.966907 797.607929c-38.015118 0-68.977658-30.96254-68.977658-68.977658l0-637.484294c0-38.015118 30.96254-68.977658 68.977658-68.977658l253.376785 0c33.88678-33.026709 78.782463-51.604233 125.742315-51.604233s91.855535 18.577524 125.742315 51.604233L891.033093 22.168318c38.015118 0 68.977658 30.96254 68.977658 68.977658L960.010751 728.63027C960.010751 766.645389 929.048211 797.607929 891.033093 797.607929zM891.033093 91.145977 622.863094 91.145977c-9.976818 0-19.609609-4.300353-26.146145-12.040988-21.501764-25.11406-52.464304-39.563245-84.630942-39.563245-32.166639 0-63.129179 14.449185-84.630942 39.563245-6.536536 7.740635-16.169326 12.040988-26.146145 12.040988l-268.342012 0L132.966907 728.63027l241.163783 0c56.936671 0 103.38048-46.44381 103.38048-103.38048l0-292.94003c0-19.093566 15.48127-34.402822 34.402822-34.402822 19.093566 0 34.402822 15.48127 34.402822 34.402822L546.316815 625.24979c0 56.936671 46.44381 103.38048 103.38048 103.38048L891.033093 728.63027 891.033093 91.145977z"  horiz-adv-x="1024" />

    
    <glyph glyph-name="WordPress" unicode="&#58884;" d="M1678.275765 451.318965h-101.526589v-10.770071c31.759059 0 36.862494-6.806588 36.862495-47.079906v-72.600094c0-40.264282-5.104941-47.640094-36.862495-47.640094-24.381741 3.401788-40.833506 16.450259-63.524141 41.404235l-26.084894 28.355765c35.160847 6.243388 53.877459 28.361788 53.877459 53.320282 0 31.189835-26.654118 55.009882-76.566588 55.009883h-99.823436v-10.770071c31.759059 0 36.862494-6.806588 36.862495-47.079906v-72.600094c0-40.264282-5.103435-47.640094-36.862495-47.640094v-10.773082h112.865883v10.773082c-31.757553 0-36.862494 7.374306-36.862494 47.640094v20.419765h9.639153l62.954917-78.832941h165.05073c81.106824 0 116.270682 43.099859 116.270682 94.72 0 51.608094-35.162353 94.143247-116.270682 94.143247m-237.643294-92.443106v75.428141h23.252329c25.521694 0 36.868518-17.578165 36.868518-37.996424 0-19.853553-11.346824-37.431718-36.868518-37.431717H1440.632471z m239.344941-78.841977h-3.972518c-20.418259 0-23.250824 5.104941-23.250823 31.195859v123.074259h27.223341c58.9824 0 69.76-43.099859 69.76-76.566588 0.001506-34.597647-10.7776-77.703529-69.76-77.70353M1048.723576 337.88235299999997l39.134871 115.713506c11.346824 33.4592 6.241882 43.099859-30.057412 43.099859v11.346823h106.630024v-11.346823c-35.731576 0-44.238306-8.508235-58.4192-49.912471l-64.664094-193.972706h-7.368283l-57.856 177.528471-58.9824-177.528471h-7.375811l-62.953412 193.974212c-13.613176 41.404235-22.689129 49.912471-55.586635 49.912471v11.346823h125.915858v-11.346823c-33.466729 0-42.542682-7.939012-30.626635-43.099859l37.994918-115.713506 57.286776 170.161694h10.779106l56.148329-170.1632zM1241.553318 255.07990600000005c-62.384188 0-113.435106 45.939953-113.435106 102.095812 0 55.579106 51.050918 101.525082 113.435106 101.525082 62.391718 0 113.436612-45.945976 113.436611-101.525082 0-56.155859-51.044894-102.095812-113.436611-102.095812m0 186.030682c-52.175812 0-70.329224-47.072376-70.329224-83.93487 0-37.437741 18.153412-83.948424 70.329224-83.948424 52.752565 0 70.899953 46.510682 70.899953 83.948424 0 36.862494-18.147388 83.934871-70.899953 83.93487M1934.629647 273.796518v-11.3408h-129.880847v11.3408c38.000941 0 44.807529 9.637647 44.807529 66.362729v90.741459c0 56.723576-6.806588 65.793506-44.807529 65.793506v11.348329h117.4016c58.4192 0 90.753506-30.064941 90.753506-70.336753 0-39.134871-32.334306-69.761506-90.753506-69.761506h-32.328282v-27.785035c0-56.723576 6.805082-66.362729 44.807529-66.362729m-12.479247 213.82927h-32.328282v-98.692517h32.328282c31.765082 0 46.509176 22.119906 46.509176 48.774023 0 27.223341-14.7456 49.918494-46.509176 49.918494M2402.541929 315.763953l-2.83407-10.208377c-5.104941-18.716612-11.346824-25.521694-51.612612-25.521694h-7.943529c-29.488188 0-34.593129 6.806588-34.59313 47.079906v26.084894c44.238306 0 47.6416-3.966494 47.6416-33.462211h10.7776v84.511623h-10.7776c0-29.494212-3.403294-33.460706-47.6416-33.460706v63.518118h31.18833c40.273318 0 46.510682-6.806588 51.614117-25.521694l2.840094-10.771577h9.06993l-3.966494 53.30673h-166.749365v-10.771577c31.759059 0 36.862494-6.805082 36.862494-47.0784v-72.600094c0-36.836894-4.338447-46.116141-29.376753-47.438306-23.800471 3.632188-40.1408 16.615906-62.495623 41.202447l-26.092424 28.355765c35.168376 6.243388 53.884988 28.361788 53.884988 53.320282 0 31.189835-26.654118 55.009882-76.566588 55.009883h-99.823435v-10.771577c31.757553 0 36.862494-6.805082 36.862494-47.0784v-72.600094c0-40.264282-5.104941-47.640094-36.862494-47.640094v-10.773082h112.864376v10.773082c-31.757553 0-36.862494 7.374306-36.862494 47.640094v20.419765h9.639153l62.954918-78.832941h233.101553l3.403294 53.308235h-8.50673z m-300.592188 43.111906v75.428141h23.250824c25.520188 0 36.868518-17.578165 36.868517-37.996424 0-19.853553-11.348329-37.431718-36.868517-37.431717h-23.250824zM2517.678682 255.07990600000005c-22.687624 0-42.544188 11.910024-51.050917 19.287341-2.834071-2.8416-7.937506-11.348329-9.06993-19.287341h-10.7776v78.269741h11.3408c4.543247-37.433224 30.626635-59.551624 64.094871-59.551623 18.145882 0 32.897506 10.206871 32.897506 27.223341 0 14.742588-13.049976 26.090918-36.299294 36.862494l-32.329789 15.313317c-22.687624 10.783624-39.702588 29.500235-39.702588 54.452706 0 27.223341 25.521694 50.475671 60.691577 50.475671 18.716612 0 34.591624-6.806588 44.238306-14.744094 2.832565 2.270871 5.666635 8.514259 7.374305 15.319341h10.771577v-66.933459h-11.91153c-3.971012 26.660141-18.715106 48.780047-48.772517 48.780047-15.882541 0-30.634165-9.077459-30.634165-23.258353 0-14.744094 11.911529-22.6816 39.140894-35.160847l31.18833-15.313317c27.229365-13.042447 38.000941-34.035953 38.000941-51.050918 0-35.731576-31.194353-60.684047-69.190777-60.684047M2689.1776 255.07990600000005c-22.687624 0-42.542682 11.910024-51.050918 19.287341-2.832565-2.8416-7.937506-11.348329-9.069929-19.287341h-10.7776v78.269741h11.3408c4.543247-37.433224 30.628141-59.551624 64.094871-59.551623 18.145882 0 32.897506 10.206871 32.897505 27.223341 0 14.742588-13.049976 26.090918-36.299294 36.862494l-32.329788 15.313317c-22.686118 10.783624-39.702588 29.500235-39.702588 54.452706 0 27.223341 25.521694 50.475671 60.691576 50.475671 18.716612 0 34.591624-6.806588 44.238306-14.744094 2.832565 2.270871 5.666635 8.514259 7.368283 15.319341h10.779105v-66.933459h-11.911529c-3.972518 26.660141-18.716612 48.780047-48.772518 48.780047-15.882541 0-30.634165-9.077459-30.634164-23.258353 0-14.744094 11.910024-22.6816 39.140894-35.160847l31.189835-15.313317c27.229365-13.042447 37.999435-34.035953 37.999435-51.050918-0.001506-35.731576-31.197365-60.684047-69.192282-60.684047M510.468518 625.451671c32.396047 0 63.814776-6.342776 93.382776-18.84913a239.793694 239.793694 0 0 0 40.747671-22.116894 241.700141 241.700141 0 0 0 35.519247-29.305976 241.755859 241.755859 0 0 0 29.30447-35.517742 239.915671 239.915671 0 0 0 22.1184-40.74767c12.506353-29.569506 18.847624-60.988235 18.847624-93.384283 0-32.394541-6.341271-63.813271-18.847624-93.382776a239.986447 239.986447 0 0 0-22.1184-40.749176c-8.585035-12.706635-18.444047-24.657318-29.30447-35.517742s-22.811106-20.720941-35.519247-29.305976a239.793694 239.793694 0 0 0-40.747671-22.116894c-29.568-12.507859-60.986729-18.850635-93.382776-18.850636-32.396047 0-63.814776 6.342776-93.382777 18.850636a239.745506 239.745506 0 0 0-40.74767 22.116894c-12.708141 8.585035-24.658824 18.445553-35.519247 29.305976s-20.719435 22.811106-29.304471 35.517742a239.929224 239.929224 0 0 0-22.1184 40.749176c-12.506353 29.569506-18.847624 60.988235-18.847624 93.382776 0 32.396047 6.341271 63.814776 18.847624 93.384283a239.915671 239.915671 0 0 0 22.1184 40.74767 241.755859 241.755859 0 0 0 29.304471 35.517742 241.700141 241.700141 0 0 0 35.519247 29.305976 239.850918 239.850918 0 0 0 40.74767 22.116894c29.568 12.506353 60.986729 18.849129 93.382777 18.84913m0 15.313317c-140.962635 0-255.235012-114.272376-255.235012-255.235012 0-140.961129 114.272376-255.233506 255.235012-255.233505s255.235012 114.272376 255.235011 255.233505c0 140.964141-114.272376 255.235012-255.235011 255.235012M297.773176 385.539012c0-84.184847 48.920094-156.944565 119.878777-191.417224L316.190118 472.098635a211.874635 211.874635 0 0 1-18.416942-86.559623m356.281224 10.7264c0 26.295718-9.444894 44.494306-17.532988 58.657129-10.783624 17.528471-20.894118 32.3584-20.894118 49.885365 0 19.549365 14.825412 37.747953 35.718024 37.747953 0.944188 0 1.837176-0.112941 2.754258-0.171671-37.841318 34.672941-88.259765 55.842635-143.631058 55.842636-74.310776 0-139.681129-38.128941-177.713694-95.864471 4.995012-0.158118 9.699388-0.257506 13.68847-0.257506 22.243388 0 56.688941 2.703059 56.688941 2.703059 11.459765 0.671624 12.815059-16.173176 1.359812-17.526965 0 0-11.526024-1.350776-24.341082-2.020894l77.450541-230.387953 46.552847 139.595294-33.135435 90.792659c-11.459765 0.670118-22.308141 2.020894-22.308142 2.020894-11.465788 0.676141-10.122541 18.198588 1.349271 17.526965 0 0 35.117176-2.703059 56.015812-2.703059 22.241882 0 56.694965 2.703059 56.694965 2.703059 11.464282 0.671624 12.813553-16.173176 1.353788-17.526965 0 0-11.536565-1.350776-24.341083-2.020894l76.866259-228.6336 21.942212 69.526588c9.747576 30.3872 15.4624 51.915294 15.4624 70.112377m-139.849788-29.330071L450.379294 181.50249399999996a212.532706 212.532706 0 0 1 60.089224-8.666353c24.768753 0 48.528565 4.2752 70.634917 12.059106a19.495153 19.495153 0 0 0-1.526964 2.930447l-65.371859 179.109647z m182.910494 120.639247c0.912565-6.773459 1.430588-14.040847 1.430588-21.869929 0-21.574776-4.043294-45.837553-16.1792-76.179577l-64.962259-187.824188c63.235012 36.864 105.759624 105.371106 105.759624 183.838118 0 36.979953-9.450918 71.743247-26.048753 102.035576"  horiz-adv-x="3011" />

    
    <glyph glyph-name="icon1" unicode="&#58892;" d="M787.115871 55.183066c-0.041956-0.925069-0.041956-1.842974-0.095167-2.777253 0.318248-10.918677 1.533936-18.204617 1.928932-14.801101 0.137123 2.185782 0.179079 4.370541 0.127913 6.514367C788.899494 46.173878 788.153504 50.187285 787.115871 55.183066zM673.111374 404.132526c-9.026584 6.514367-20.844747 6.368034-31.851429 1.89414-5.185093-2.117221-10.328229-4.216022-15.461133-6.325056-2.434445-0.686638-4.757351-1.661849-6.874571-3.059686-9.206686-4.739954-10.92891-11.768021-7.997138-18.34174 0.942465-4.218068 3.925403-8.425903 9.925047-12.017708 94.565772-75.949786 147.211806-183.191252 163.306366-297.376874 1.12359-5.066389 2.125407-9.694803 2.957355-13.723559C793.493116 189.459259 763.253394 314.059068 673.111374 404.132526zM242.974847 357.99472c245.24761-104.885815 323.279824 37.978986 323.279824 37.978986C419.086867 514.170688 242.974847 357.99472 242.974847 357.99472zM234.899938 831.586968c111.167892-408.099628 365.603769-364.369661 365.603769-364.369661C602.467431 766.524137 234.899938 831.586968 234.899938 831.586968zM659.96189 488.747669c159.981644 124.128065 40.859593 346.8261 40.859593 346.8261C530.281365 605.753523 659.96189 488.747669 659.96189 488.747669z"  horiz-adv-x="1024" />

    
    <glyph glyph-name="shumaweixiu" unicode="&#58923;" d="M917.358 615.118h-230.037c-13.944 0-25.352-11.409-25.352-25.352v-471.324c0-13.944 11.409-25.352 25.352-25.352h230.038c13.944 0 25.352 11.409 25.352 25.352l0 471.324c-0.001 13.944-11.409 25.352-25.353 25.352zM778.948 599.966h46.782c1.193 0 2.17-0.976 2.17-2.17 0-1.193-0.976-2.17-2.17-2.17h-46.782c-1.193 0-2.17 0.976-2.17 2.17 0.001 1.194 0.977 2.17 2.17 2.17zM802.34 112.774c-10.569 0-19.135 8.567-19.135 19.135s8.567 19.135 19.135 19.135c10.568 0 19.135-8.567 19.135-19.135s-8.567-19.135-19.135-19.135zM904.837 180.001h-204.995v383.735h204.994l0-383.735zM68.993 163.962c0-39.141 31.731-70.872 70.872-70.872h488.801v77.638l-552.908 0c-3.737 0-6.765-3.029-6.765-6.766zM399.459 138.804h154.202c3.792 0 6.896-3.103 6.896-6.895s-3.104-6.895-6.896-6.895h-154.202c-3.792 0-6.895 3.103-6.895 6.895s3.103 6.895 6.895 6.895zM135.125 646.644l725.032-0.205v7.639c0 33.368-27.301 60.669-60.67 60.669h-661.767c-33.368 0-60.67-27.301-60.67-60.669v-403.691c0-33.368 27.302-60.669 60.67-60.669h490.946v63.32l-493.542-0v393.606z"  horiz-adv-x="1024" />

    
    <glyph glyph-name="zixun" unicode="&#58905;" d="M170.159 778.643h682.128c21.428 0 41.017-8.804 55.213-22.973l0.112-0.112c14.174-14.219 23.002-33.821 23.002-55.213v-624.776c0-21.421-8.826-40.995-23.002-55.213l-0.112-0.112c-14.197-14.169-33.788-23.002-55.213-23.002H171.711c-21.455 0-41.023 8.832-55.219 23.002l-0.107 0.112c-14.174 14.219-23.002 33.793-23.002 55.213v626.3c0 21.12 8.637 40.37 22.538 54.264l1.988 1.77c13.705 12.835 32.101 20.74 52.249 20.74z m682.129-55.816H170.16a21.102 21.102 0 0 1-13.907-5.231l-0.871-0.921c-3.814-3.79-6.186-9.078-6.186-14.806v-626.301c0-6.052 2.345-11.5 6.158-15.481l0.357-0.385 0.134-0.107c3.981-4.031 9.625-6.538 15.866-6.538h680.577c6.052 0 11.528 2.345 15.509 6.158l0.38 0.38 0.112 0.107c4.008 3.981 6.509 9.653 6.509 15.866V700.344c0 6.052-2.339 11.528-6.13 15.481l-0.38 0.385-0.112 0.107c-4.002 4.03-9.647 6.509-15.889 6.509zM232.921 555.438c-15.397 0-27.908 12.505-27.908 27.908 0 15.426 12.511 27.908 27.908 27.908H791.05c15.426 0 27.937-12.483 27.937-27.908 0-15.403-12.511-27.908-27.937-27.908H232.921zM250.686 443.794h187.185c12.695 0 24.308-5.209 32.648-13.572 8.363-8.341 13.572-19.975 13.572-32.677v-186.638c0-12.751-5.209-24.308-13.572-32.698a46.156 46.156 0 0 0-32.648-13.521H251.233c-12.751 0-24.308 5.181-32.671 13.521-8.347 8.391-13.55 19.948-13.55 32.698V398.115c0 12.456 5.125 23.877 13.41 32.162l0.112 0.112c8.252 8.252 19.675 13.405 32.152 13.405z m177.589-55.845H260.83v-167.445h167.445V387.949zM623.74 389.383c-15.426 0-27.908 12.505-27.908 27.903 0 15.403 12.483 27.908 27.908 27.908h167.311c15.426 0 27.937-12.505 27.937-27.908 0-15.398-12.511-27.903-27.937-27.903H623.74zM623.74 221.385c-15.426 0-27.908 12.539-27.908 27.964 0 15.375 12.483 27.908 27.908 27.908h167.311c15.426 0 27.937-12.532 27.937-27.908 0-15.426-12.511-27.964-27.937-27.964H623.74z"  horiz-adv-x="1024" />

    
    <glyph glyph-name="begin" unicode="&#58883;" d="M696.1548456500717 375.11760090709083c59.594697616501584-39.24780938808479 76.01680610436229-119.39596195711013 36.76899971190837-178.88737621155826s-119.39596195711013-76.01680610436229-178.88737621155826-36.66571634985489c-59.491414254448095 39.24780938808479-75.91352274230877 119.29267859505666-36.66571634985489 178.78409284950467 39.24780938808479 59.594697616501584 119.29267859505666 76.01680610436229 178.78409284950467 36.76899971190837zM826.1890298462621 806.6369194781314h56.39290440595077c28.4030174292669 0 51.64185177770496-23.23883434843804 51.64185177770496-51.64185177770496v-465.60294188266516c-6.71343950289298 92.74876767401432-54.946931345940165 181.46946924978815-138.50344984088508 236.6229673198352-38.52482285807946 25.304507580769602-80.56128901287019 41.00362953862497-123.32074169766626 47.51050531304186l153.78943535489563 233.11132102749306zM137.59656936928502 806.6369194781314h472.1098146614512l-242.51013693066938-367.58670477013766c-0.20656672410697535-0.4131334482139507-0.5164198058983351-0.8262698920587981-0.7229865300053108-1.136119978219262-94.19473773839402-142.94464639170857-54.74036462183317-335.0523378805768 88.10099840782198-429.2470786146016 45.03169563686546-29.745707127224048 94.91772426839937-46.16781561508473 145.11360598172456-50.195881713325235H137.59656936928502c-28.4030174292669 0-51.64185177770496 23.23883434843804-51.64185177770496 51.64185477333585v744.882078525243c0 28.4030174292669 23.23883434843804 51.64185177770496 51.64185177770496 51.64185177770496z"  horiz-adv-x="1024" />

    
    <glyph glyph-name="web" unicode="&#59701;" d="M698.026667 298.666667c3.413333 28.16 5.973333 56.32 5.973333 85.333333 0 29.013333-2.56 57.173333-5.973333 85.333333h144.213333c6.826667-27.306667 11.093333-55.893333 11.093333-85.333333s-4.266667-58.026667-11.093333-85.333333m-219.733333-237.226667c25.6 47.36 45.226667 98.56 58.88 151.893333h125.866666a342.613333 342.613333 0 0 0-184.746666-151.893333M611.84 298.666667H412.16c-4.266667 28.16-6.826667 56.32-6.826667 85.333333 0 29.013333 2.56 57.6 6.826667 85.333333h199.68c3.84-27.733333 6.826667-56.32 6.826667-85.333333 0-29.013333-2.986667-57.173333-6.826667-85.333333M512 44.373333c-35.413333 51.2-64 107.946667-81.493333 168.96h162.986666c-17.493333-61.013333-46.08-117.76-81.493333-168.96M341.333333 554.666667H216.746667A338.048 338.048 0 0 0 401.066667 706.56C375.466667 659.2 356.266667 608 341.333333 554.666667m-124.586666-341.333334H341.333333c14.933333-53.333333 34.133333-104.533333 59.733334-151.893333A341.674667 341.674667 0 0 0 216.746667 213.333333m-34.986667 85.333334C174.933333 325.973333 170.666667 354.56 170.666667 384s4.266667 58.026667 11.093333 85.333333h144.213333c-3.413333-28.16-5.973333-56.32-5.973333-85.333333 0-29.013333 2.56-57.173333 5.973333-85.333333M512 724.053333c35.413333-51.2 64-108.373333 81.493333-169.386666h-162.986666c17.493333 61.013333 46.08 118.186667 81.493333 169.386666M807.253333 554.666667h-125.866666a667.733333 667.733333 0 0 1-58.88 151.893333c78.506667-26.88 143.786667-81.066667 184.746666-151.893333M512 810.666667C276.053333 810.666667 85.333333 618.666667 85.333333 384a426.666667 426.666667 0 0 1 426.666667-426.666667 426.666667 426.666667 0 0 1 426.666667 426.666667A426.666667 426.666667 0 0 1 512 810.666667z"  horiz-adv-x="1024" />

    
    <glyph glyph-name="bianji" unicode="&#58922;" d="M128 832a64 64 0 0 1-64-64v-768a64 64 0 0 1 64-64h768a64 64 0 0 1 64 64V768a64 64 0 0 1-64 64H128z m0 64h768a128 128 0 0 0 128-128v-768a128 128 0 0 0-128-128H128a128 128 0 0 0-128 128V768a128 128 0 0 0 128 128zM192 96a32 32 0 1 0 0 64h640a32 32 0 1 0 0-64H192zM805.376 657.728a32 32 0 1 0 53.248-35.456l-256-384a32 32 0 0 0-53.248 35.456l256 384zM192 352a32 32 0 0 0 0 64h256a32 32 0 0 0 0-64H192z"  horiz-adv-x="1024" />

    
    <glyph glyph-name="HotNewspro" unicode="&#58880;" d="M509.53643932699214 381.2931979491183l454.59319308637913 454.5931911796577 0.7231412433220323-0.7231412433220323v-907.7401017793926l-0.7231412433220323-0.7231412433220323zM508.8132980836703 381.2931979491183l-454.59319308637913-454.59319308637913-0.7231412433220323 0.7231412433220323V835.1632478854538l0.7231412433220323 0.7231412433220323z"  horiz-adv-x="1024" />

    
    <glyph glyph-name="ality" unicode="&#58882;" d="M396.4940142134366 703.8789061412854h211.34835698003772l-374.2653802145772-648.2466536743834H22.22863399885938zM409.65840805919316 703.8789061412854h211.34835466598415l374.2653802145772-648.2466536743834H783.9237882737706z"  horiz-adv-x="1024" />

    
    <glyph glyph-name="adminplugins" unicode="&#58897;" d="M671.232 672.768l-165.888-165.888-95.744 95.744 165.888 165.888c17.92 17.408 53.76 10.24 79.872-16.384 26.624-26.112 33.792-61.952 15.872-79.36zM261.632 582.144l46.592 57.344 461.312-461.312-60.928-43.008c-36.352-36.352-134.656-59.392-195.584-59.392l-198.656 0-63.488-63.488c-30.208-30.208-78.848-30.208-108.544 0-30.208 29.696-30.208 78.336 0 108.544l63.488 63.488 0 198.656c0 57.856 20.48 163.328 55.808 199.168zM633.344 378.88l165.888 165.888c17.408 17.92 53.248 10.752 79.36-15.872 26.624-26.112 33.792-61.952 15.872-79.36l-165.888-166.4z"  horiz-adv-x="1024" />

    
    <glyph glyph-name="wordpress" unicode="&#59131;" d="M1024 384c0 282.624-229.376 512-512 512s-512-229.376-512-512 229.376-512 512-512 512 229.376 512 512zM512 844.288c254.464 0 460.288-205.824 460.288-460.288s-205.824-460.288-460.288-460.288-460.288 205.824-460.288 460.288 205.824 460.288 460.288 460.288zM410.112 137.216l-156.16 420.352c25.088 1.536 53.76 4.096 53.76 4.096 22.016 2.56 19.456 51.712-3.072 50.688 0 0-66.048-5.12-109.056-5.12-7.68 0-16.896 0-26.624 0.512 73.728 111.104 199.68 184.32 343.04 184.32 107.008 0 204.288-40.448 276.992-107.008-30.72 4.096-74.24-17.92-74.24-72.704 0-33.792 19.456-62.464 40.448-96.256 15.872-27.648 25.6-62.464 25.6-113.152 0-68.608-65.024-229.376-65.024-229.376l-138.752 384c24.576 1.536 38.4 8.192 38.4 8.192 22.016 2.56 19.456 56.32-2.56 55.296 0 0-66.56-5.632-109.568-5.632-39.936 0-108.032 5.632-108.032 5.632-22.016 1.024-24.576-54.272-2.56-55.296l43.008-4.096 57.344-155.648zM718.336 27.136l133.632 356.864s34.304 86.528 19.968 195.072c32.256-58.368 48.128-123.904 48.128-195.072 0-151.552-79.872-285.696-201.728-356.864zM137.216 549.376l195.584-536.576c-136.704 66.56-228.864 208.896-228.864 371.2 0 59.392 10.24 114.176 33.28 165.376zM518.656 317.44l117.248-320c-38.4-13.824-80.384-21.504-123.904-21.504-36.864 0-72.192 5.632-105.472 15.36z"  horiz-adv-x="1024" />

    
    <glyph glyph-name="fenlei1" unicode="&#58881;" d="M0.601999 114.605526c0-20.46796 3.009994-40.333921 7.825985-58.995885 6.621987-24.681952 32.507937-36.119929 52.975897-23.477954l0.601999 0.601999c14.447972 9.029982 19.865961 28.895944 16.253968 46.353909-2.407995 10.835979-3.611993 21.671958-3.611993 32.507937 0 90.299824 73.443857 176.385655 163.74368 176.385655 49.363904 0 176.385655-0.601999 176.385655-0.601999s0.601999-140.265726 0.601999-176.385655c0 0.601999 0 1.203998 0 1.805996 0-13.845973 0-12.641975 0-1.805996-1.203998-89.697825-87.28983-163.74368-176.987654-163.74368-50.567901 0-95.115814 22.875955-125.215755 58.995885-11.437978 13.243974-28.895944 17.457966-42.741917 7.825985 0 0-0.601999 0-0.601999-0.601999-18.661964-13.243974-21.671958-42.139918-6.019988-59.597884 44.547913-49.965902 108.359788-81.87184 178.793651-81.87184 131.235744 0 246.217519 110.767784 246.217519 242.003527 0 58.995885 0.601999 244.411523 0.601999 244.411523s-174.579659 1.805996-246.217519 1.805996C111.369782 360.823045 0.601999 245.84127 0.601999 114.605526zM1022.796002 653.394474c0 20.46796-3.009994 40.333921-7.825985 58.995885-6.621987 24.681952-32.507937 36.119929-52.975897 23.477954l-0.601999-0.601999c-14.447972-9.029982-19.865961-28.895944-16.253968-46.353909 2.407995-10.835979 3.611993-21.671958 3.611993-32.507937 0-90.299824-73.443857-176.385655-163.74368-176.385655-49.363904 0-176.385655 0.601999-176.385655 0.601999S608.018812 620.284539 608.018812 656.404468c0-0.601999 0-1.203998 0-1.805996 0 13.845973 0 12.641975 0 1.805996 1.203998 89.697825 87.28983 163.74368 176.987654 163.74368 50.567901 0 95.115814-22.875955 125.215755-58.995885 11.437978-13.243974 28.895944-17.457966 42.741917-7.825985 0 0 0.601999 0 0.601999 0.601999 18.661964 13.243974 21.671958 42.139918 6.019988 59.597884-44.547913 49.965902-108.359788 81.87184-178.793651 81.87184-131.235744 0-246.217519-110.767784-246.217519-242.003527 0-58.995885-0.601999-244.411523-0.601999-244.411523s174.579659-1.805996 246.217519-1.805996C912.630218 407.176955 1022.796002 522.15873 1022.796002 653.394474zM781.394474 362.027043c-71.63786 0-246.217519-1.805996-246.217519-1.805996s0.601999-185.415638 0.601999-244.411523c0-131.235744 114.981775-242.003527 246.217519-242.003527 131.235744 0 241.401529 110.767784 241.401529 242.003527C1022.796002 247.045267 912.630218 362.027043 781.394474 362.027043zM242.605526 407.176955c71.63786 0 246.217519 1.805996 246.217519 1.805996s-0.601999 185.415638-0.601999 244.411523c0 131.235744-114.981775 242.003527-246.217519 242.003527C111.369782 895.398001 0.601999 784.630218 0.601999 653.394474 0.601999 522.15873 111.369782 407.176955 242.605526 407.176955z"  horiz-adv-x="1024" />

    
    <glyph glyph-name="gouwu" unicode="&#58921;" d="M62.407352 38.662947M892.768143-67.102912l-27.097148 493.845525c-1.867534 34.04949-27.096125 59.436694-61.184501 59.436694L686.488033 486.179306 686.488033 555.239172c0 48.938596-17.480116 90.89415-51.569516 124.990712-34.088376 34.086329-76.04393 51.568493-124.991736 51.568493-48.073902 0-90.24435-17.267269-124.991736-51.568493-34.305317-33.872458-51.569516-76.051093-51.569516-124.990712l0-69.058842L215.368092 486.18033c-34.088376 0-59.315944-25.388227-61.184501-59.436694l-27.096125-493.845525c0 0 0-0.86674 0-1.743714 0-34.086329 26.221198-61.189617 60.310597-61.189617l645.059482 0c34.089399 0 60.310597 27.103288 60.310597 61.189617C892.768143-68.845603 892.816239-67.969653 892.768143-67.102912zM396.298861 555.239172c0 31.457456 11.363815 58.560744 33.214473 80.405261 21.851681 21.853727 48.947805 33.219589 80.414471 33.219589 31.465642 0 58.561767-11.364839 80.414471-33.219589 21.851681-21.844517 33.213449-48.947805 33.213449-80.405261l0-69.058842L396.298861 486.18033 396.298861 555.239172zM189.146894-67.102912l27.969005 491.225861L333.366553 424.122949l0-59.436694c-7.866155-7.860015-11.362792-17.48114-11.362792-28.837792 0-14.861476 6.118348-27.103288 18.355043-34.963303 13.111622-16.614399 35.836183-16.614399 48.946782 0 12.236696 7.860015 18.356067 20.101827 18.356067 34.963303 0 11.355629-3.496637 20.977777-11.363815 28.837792L396.297838 424.122949 623.555725 424.122949l0-59.436694c-7.866155-7.860015-11.362792-17.48114-11.362792-28.837792 0-14.861476 6.118348-27.103288 18.355043-34.963303 13.110599-16.614399 35.836183-16.614399 48.946782 0 12.236696 7.860015 18.356067 20.101827 18.356067 34.963303 0 11.355629-3.496637 20.977777-11.363815 28.837792L686.48701 424.122949l116.250654 0 27.970028-491.225861L189.146894-67.102912zM957.451328 38.662947"  horiz-adv-x="1024" />

    
    <glyph glyph-name="fenlei" unicode="&#3684;" d="M276.244578 832.26235c58.248635 0 110.868063-23.585161 149.015895-61.73197 0.446162-0.447185 0.893346-0.89437 1.25048-1.429559 37.34249-37.968753 60.392462-90.140996 60.392462-147.586336l0-187.429787c0-12.865006-10.363022-23.228027-23.229051-23.228027L276.244578 410.856671c-58.158584 0-110.778013 23.584138-148.925844 61.641919l-0.089028 0.089028-0.089028-0.089028c-38.057781 38.236859-61.642942 90.946338-61.642942 149.104923s23.585161 110.868063 61.73197 149.014872C165.377538 808.677189 218.085994 832.26235 276.244578 832.26235L276.244578 832.26235 276.244578 832.26235 276.244578 832.26235zM385.594055 730.864986c-27.962865 27.962865-66.645886 45.205575-109.349477 45.205575-42.702568 0-81.386612-17.242709-109.348454-45.205575-27.962865-27.962865-45.204551-66.555835-45.204551-109.259426s17.241686-81.296561 45.204551-109.259426l0-0.089028c27.962865-27.873838 66.645886-45.115524 109.348454-45.115524l154.555052 0L430.79963 621.6055590000001c0 42.167379-16.795525 80.314187-44.13315 108.188025L385.594055 730.864986 385.594055 730.864986 385.594055 730.864986zM688.002526 305.260681M690.146353 305.260681c-12.06171 0-26.444279 10.273994-27.427676 27.427676-0.893346 14.293541 13.132088 27.962865 28.230971 27.962865l57.176211 0c58.248635 0 110.957091-23.585161 149.014872-61.732993 0.447185-0.447185 0.89437-0.893346 1.25048-1.429559 37.343513-37.968753 60.392462-90.140996 60.392462-147.586336 0-58.158584-23.585161-110.688985-61.732993-148.835793l-0.089028-0.089028c-38.145785-38.146808-90.766236-61.642942-148.924821-61.642942s-110.779036 23.585161-148.925844 61.642942l-0.089028 0.089028-0.089028-0.089028c-38.147832 38.146808-61.73197 90.766236-61.73197 148.925844L537.200962 335.277322c0 12.775978 12.863982 25.460882 28.856211 25.460882 16.616446 0 27.426653-14.918781 27.426653-26.979468L593.483826 150.79465700000003c0-42.702568 17.242709-81.296561 45.205575-109.259426l0-0.089028c28.051893-27.873838 66.734914-45.115524 109.438505-45.115524 42.703591 0 81.386612 17.241686 109.349477 45.115524 27.873838 27.961842 45.204551 66.645886 45.204551 109.348454 0 42.168402-16.795525 80.31521-44.132126 108.189048l-1.072425 1.072425c-27.962865 27.962865-66.645886 45.204551-109.349477 45.204551L690.146353 305.260681zM276.244578-4.383588000000032c42.703591 0 81.386612 17.241686 109.349477 45.115524 27.872814 27.962865 45.205575 66.645886 45.205575 109.349477L430.79963 304.54539 276.244578 304.54539c-42.702568 0-81.386612-17.242709-109.348454-45.205575-27.962865-27.962865-45.204551-66.555835-45.204551-109.259426 0-42.703591 17.241686-81.296561 45.204551-109.259426l1.072425-1.072425C195.930391 12.411936999999966 234.0772-4.383588000000032 276.244578-4.383588000000032L276.244578-4.383588000000032 276.244578-4.383588000000032 276.244578-4.383588000000032zM425.171446 1.0655179999999973c-38.147832-38.146808-90.76726-61.642942-148.925844-61.642942-57.443293 0-109.61656 23.048949-147.674341 60.392462-0.446162 0.447185-0.893346 0.893346-1.429559 1.25048C89.082898 39.213348999999994 65.497737 91.83277699999996 65.497737 150.08038899999997c0 58.158584 23.585161 110.868063 61.73197 148.925844 38.146808 38.147832 90.856287 61.73197 149.014872 61.73197l187.519838 0c12.865006 0 23.229051-10.45205 23.229051-23.228027l0-187.429787c0-58.158584-23.585161-110.688985-61.732993-148.836817L425.171446 1.0655179999999973 425.171446 1.0655179999999973 425.171446 1.0655179999999973zM748.126882 776.07056c-42.703591 0-81.386612-17.242709-109.349477-45.205575-27.962865-27.962865-45.205575-66.555835-45.205575-109.259426L593.57183 467.139535l154.554028 0c42.703591 0 81.386612 17.242709 109.349477 45.115524 27.873838 27.962865 45.204551 66.645886 45.204551 109.349477s-17.241686 81.296561-45.204551 109.259426l-0.089028 0C829.423443 758.827851 790.82945 776.07056 748.126882 776.07056L748.126882 776.07056 748.126882 776.07056 748.126882 776.07056zM599.021959 770.619408c38.147832 38.057781 90.946338 61.642942 149.104923 61.642942 58.248635 0 110.957091-23.585161 149.014872-61.73197l-0.089028-0.089028 0.089028-0.089028c38.147832-38.147832 61.732993-90.678232 61.732993-148.836817 0-58.158584-23.585161-110.690008-61.732993-148.836817l-0.089028-0.089028c-38.145785-38.145785-90.766236-61.641919-148.924821-61.641919L560.518017 410.947745c-12.775978 0-23.228027 10.361999-23.228027 23.228027L537.289989 621.6055590000001C537.379017 679.764144 560.874127 732.473623 599.021959 770.619408L599.021959 770.619408 599.021959 770.619408 599.021959 770.619408zM599.021959 770.619408"  horiz-adv-x="1024" />

    
    <glyph glyph-name="ventilation" unicode="&#59116;" d="M624.9 544.9c176.7 93.5 336.4-13.9 336.4-190.1 0-152.8-101.1-209-211.6-135.3-35.2 24.4-58.1 40.2-74.7 50.9 91.4-175.8-15.8-334.2-191.3-334.2-152.8 0-209 101.1-135.3 211.6 25.6 36.9 41.7 60.3 52.4 77.1-177.2-94.8-337.6 12.7-337.6 189.3 0 152.8 101.1 209 211.6 135.3 35.5-24.6 58.5-40.4 75.1-51.1-91.2 175.7 16 333.9 191.4 333.9 152.8 0 209-101.1 135.3-211.6-25-36-41-59.2-51.7-75.8zM513.2 286.20000000000005c54.1 0 98 43.9 98 98s-43.9 98-98 98-98-43.9-98-98 43.9-98 98-98zM472.4 240.10000000000002c-10.6-26.5-28-52.7-77.4-123.4-48.6-72.8-19.9-124.5 88.7-124.5 146.9 0 227.6 137.2 117.2 291.8 0 0-51.3-25.7-87.8-25.7-11.6 0-22.9 1.6-33.6 4.5-1.7-7.7-4.1-15.2-7.1-22.7zM367 425.6c-26.5 10.6-52.7 28-123.4 77.4-72.8 48.6-124.5 19.9-124.5-88.7 0-147 137.2-227.6 291.8-117.2 0 0-23.7 50.8-23.7 87.2 0 11.7 1.6 23 4.6 33.7-8.4 1.8-16.6 4.3-24.8 7.6zM552.6 528.5c10.6 26.5 28 52.7 77.4 123.4 48.6 72.8 19.9 124.5-88.7 124.5-147 0-227.6-137.2-117.2-291.8 0 0 52.9 25.7 89.2 25.7 11.1 0 21.9-1.4 32.2-4.2 1.7 7.5 4.1 14.9 7.1 22.4zM613.5 472s25.7-50.6 25.7-87.8c0-11.6-1.6-22.9-4.5-33.6 7.7-1.8 15.2-4.2 22.7-7.2 26.5-10.6 52.7-28 123.4-77.4 72.8-48.6 124.5-19.9 124.5 88.7 0 147-137.2 227.7-291.8 117.3z"  horiz-adv-x="1024" />

    
    <glyph glyph-name="androidgengduo" unicode="&#59277;" d="M415.930119 672.209642c0 52.980346 43.003528 95.983874 95.983874 95.983874s95.983874-43.003528 95.983874-95.983874-43.003528-95.983874-95.983874-95.983874S415.930119 619.229296 415.930119 672.209642zM415.930119 384.258021c0 52.980346 43.003528 95.983874 95.983874 95.983874s95.983874-43.003528 95.983874-95.983874-43.003528-95.983874-95.983874-95.983874S415.930119 331.277675 415.930119 384.258021zM415.930119 96.134386c0 52.980346 43.003528 95.983874 95.983874 95.983874s95.983874-43.003528 95.983874-95.983874-43.003528-95.983874-95.983874-95.983874S415.930119 43.326054 415.930119 96.134386z"  horiz-adv-x="1024" />

    
    <glyph glyph-name="shouye" unicode="&#59217;" d="M979.792374 491.422812 574.183101 812.057114c-34.918864 27.694272-89.619352 27.694272-124.538216 0L44.207626 491.422812c-13.933143-11.008903-16.169326-31.134554-5.332437-44.895683s30.618512-16.169326 44.551655-5.332437l12.55703 10.320847 0-387.547791c0-54.872501 57.968755-95.983874 108.712918-95.983874l639.892491 0c50.22812 0 83.254829 38.531161 83.254829 95.983874L927.844112 450.139425l11.69696-8.944734c5.84848-4.644381 13.073072-6.880564 20.125651-6.880564 9.460776 0 18.921552 4.128339 25.286074 12.213002C995.9617 460.288258 993.725517 480.413909 979.792374 491.422812zM479.919368 31.973123 479.919368 209.491685c0 8.77272 15.997312 13.245087 31.994625 13.245087s31.994625-4.472367 31.994625-13.245087l0-177.346548L479.919368 31.973123 479.919368 31.973123zM864.026877 63.967747c0-21.157736-5.84848-31.994625-19.26558-31.994625L608.585923 31.973123c0 0.516042-0.688056 0.860071-0.688056 1.376113L607.897867 209.491685c0 37.155048-29.930455 77.234336-95.983874 77.234336s-95.983874-40.079288-95.983874-77.234336l0-176.142449c0-0.516042 0.860071-0.860071 0.860071-1.376113L204.868806 31.973123c-20.125651 0-44.723669 17.373425-44.723669 31.994625L160.145137 502.259701 488.864102 761.828994c11.868974 9.288762 33.198723 9.288762 44.895683 0l330.095078-261.11742L863.854863 63.967747z"  horiz-adv-x="1024" />

    
    <glyph glyph-name="computer" unicode="&#59115;" d="M135.56898322962962 187.64443496296315v97.97065639506174h752.9034587654321v-98.38490864197529l-752.9034587654321 0.41425224691358015zM888.4310167703702 756.4127699753087v-387.9472292345679H135.61040845432103V756.8270222222222l752.8620335407408-0.41425224691358015z m0 83.26470162962961H135.56898322962962C91.82394595555553 839.6774716049383 56.32252839506174 802.3119189333333 56.32252839506174 756.4127699753087v-568.7683350123457c0-45.94057418271605 35.50141756049383-83.26470162962961 79.20502960987653-83.26470162962961h336.82850196543217v-67.31599012345679h-118.89039486419752c-21.831093412345684 0-39.60251480493827-18.55850066172839-39.60251480493827-41.425224691358025 0-22.90814925432099 17.771421392592593-41.425224691358025 39.64394002962962-41.425224691358025h316.9858193382716c21.872518637037036 0 39.64394002962962 18.517075437037036 39.64394002962962 41.425224691358025 0 22.86672402962963-17.771421392592593 41.425224691358025-39.64394002962962 41.425224691358025h-118.89039486419752V104.37973333333332h336.8699271901234c43.70361204938271 0 79.20502960987653 37.32412744691358 79.20502960987653 83.26470162962961V756.4127699753087C967.6774716049384 802.3119189333333 932.1760540444445 839.6774716049383 888.4724419950619 839.6774716049383z"  horiz-adv-x="1024" />

    
    <glyph glyph-name="localmall" unicode="&#59281;" d="M810.666667 640l-85.333333 0c0 117.76-95.573333 213.333333-213.333333 213.333333s-213.333333-95.573333-213.333333-213.333333l-85.333333 0c-47.146667 0-84.906667-38.186667-84.906667-85.333333l-0.426667-512c0-47.146667 38.186667-85.333333 85.333333-85.333333l597.333333 0c47.146667 0 85.333333 38.186667 85.333333 85.333333l0 512c0 47.146667-38.186667 85.333333-85.333333 85.333333zM512 768c70.613333 0 128-57.386667 128-128l-256 0c0 70.613333 57.386667 128 128 128zM512 341.333333c-117.76 0-213.333333 95.573333-213.333333 213.333333l85.333333 0c0-70.613333 57.386667-128 128-128s128 57.386667 128 128l85.333333 0c0-117.76-95.573333-213.333333-213.333333-213.333333z"  horiz-adv-x="1024" />

    
    <glyph glyph-name="blogs" unicode="&#230;" d="M509.916037-37.56940799999995c-11.43954 0-22.983457 3.344165-41.174772 11.929704L82.638627 147.915074c-18.99768 10.092869-24.6494 46.904263-25.072025 69.018933 21.834284-12.256138 53.319369-27.105335 58.433854-28.992311l-0.014326-0.023536 394.993123-182.104501 394.989029 182.104501-0.078795-0.027629c1.064238 0.427742 6.229888 2.994194 34.69622 17.272385 7.944949 3.985778 16.266475 8.15882 23.801079 11.92561-0.50449-24.932856-8.345062-61.377906-25.092491-69.180616L553.244868-25.627425000000017C533.525758-34.21910300000002 521.373996-37.56940799999995 509.916037-37.56940799999995zM509.916037 144.22503099999994c-11.43954 0-22.984481 3.342118-41.175795 11.919471L82.643744 329.713606c-19.001773 10.083659-24.654516 46.90631-25.077142 69.03019 21.836331-12.259208 53.325509-27.111474 58.436924-28.997428l-0.013303-0.024559 394.989029-182.105524L905.968282 369.720785l-0.106424-0.035816c1.147126 0.451278 6.925736 3.319605 38.297234 19.061125 6.834662 3.430122 13.81668 6.932899 20.228717 10.145058-0.50449-24.932856-8.343015-61.376882-25.088398-69.187779L553.244868 156.15780500000005C533.525758 147.57328900000005 521.373996 144.22503099999994 509.916037 144.22503099999994zM509.916037 326.02663399999994c-11.43954 0-22.984481 3.340071-41.175795 11.908214L82.638627 511.519302c-12.665461 6.725168-20.706601 20.782326-21.418822 37.557384-0.800225 18.86465 7.462972 36.240389 21.569248 45.366234L468.802664 798.246629c17.941628 8.960069 31.56695 12.96222 44.148499 12.96222 12.69616 0 25.075095-3.986801 40.135092-12.922311l386.144594-203.875341c13.273305-7.270591 21.451568-24.617677 20.812001-44.180222-0.592494-18.198477-8.541537-33.035394-20.742417-38.71986L553.244868 337.946105C533.525758 329.369775 521.373996 326.02663399999994 509.916037 326.02663399999994zM113.025705 552.768775l397.953547-167.704536 397.954571 167.704536L510.979252 766.805546 113.025705 552.768775z"  horiz-adv-x="1024" />

    


  </font>
</defs>
</svg>
